<?xml version="1.0" encoding="UTF-8" standalone="no"?>
<svg
   xmlns:dc="http://purl.org/dc/elements/1.1/"
   xmlns:cc="http://creativecommons.org/ns#"
   xmlns:rdf="http://www.w3.org/1999/02/22-rdf-syntax-ns#"
   xmlns:svg="http://www.w3.org/2000/svg"
   xmlns="http://www.w3.org/2000/svg"
   xmlns:sodipodi="http://sodipodi.sourceforge.net/DTD/sodipodi-0.dtd"
   xmlns:inkscape="http://www.inkscape.org/namespaces/inkscape"
   width="70"
   height="70"
   viewBox="0 0 18.520833 18.520834"
   version="1.1"
   id="svg1058"
   inkscape:version="1.0.2 (e86c870879, 2021-01-15, custom)"
   sodipodi:docname="community_logo.svg">
  <defs
     id="defs1052" />
  <sodipodi:namedview
     id="base"
     pagecolor="#ffffff"
     bordercolor="#666666"
     borderopacity="1.0"
     inkscape:pageopacity="0.0"
     inkscape:pageshadow="2"
     inkscape:zoom="3.959798"
     inkscape:cx="81.067602"
     inkscape:cy="40.891208"
     inkscape:document-units="px"
     inkscape:current-layer="layer1"
     inkscape:document-rotation="0"
     showgrid="false"
     units="px"
     inkscape:window-width="1267"
     inkscape:window-height="728"
     inkscape:window-x="83"
     inkscape:window-y="0"
     inkscape:window-maximized="0" />
  <metadata
     id="metadata1055">
    <rdf:RDF>
      <cc:Work
         rdf:about="">
        <dc:format>image/svg+xml</dc:format>
        <dc:type
           rdf:resource="http://purl.org/dc/dcmitype/StillImage" />
        <dc:title></dc:title>
      </cc:Work>
    </rdf:RDF>
  </metadata>
  <g
     inkscape:label="Layer 1"
     inkscape:groupmode="layer"
     id="layer1">
    <g
       id="g2816"
       transform="matrix(0.2985775,0,0,0.2985775,-0.3289347,-0.19347483)"
       style="fill:#34495e;fill-opacity:1">
      <path
         d="m 34.319,32.4 a 5,5 0 1 0 -4.638,0 A 7.007,7.007 0 0 0 25,39 a 1,1 0 0 0 1,1 h 12 a 1,1 0 0 0 1,-1 7.007,7.007 0 0 0 -4.681,-6.6 z M 32,25 a 3,3 0 1 1 -3,3 3,3 0 0 1 3,-3 z m -4.9,13 a 5,5 0 0 1 9.8,0 z"
         id="path2803"
         style="fill:#34495e;fill-opacity:1" />
      <path
         d="m 53,43 a 9.953,9.953 0 0 0 -6.324,2.261 l -4.814,-4.814 a 12.933,12.933 0 0 0 3.112,-7.927 l 10.212,-0.378 a 3.972,3.972 0 1 0 -0.089,-2 l -10.188,0.377 a 13,13 0 0 0 -5.792,-9.387 l 1.911,-3.474 a 6.008,6.008 0 1 0 -1.752,-0.964 l -1.912,3.476 a 12.909,12.909 0 0 0 -13.811,1.966 l -4.814,-4.814 a 10.016,10.016 0 1 0 -1.414,1.414 l 4.814,4.814 A 12.858,12.858 0 0 0 19.232,34.4 l -8.783,2.364 A 4.961,4.961 0 1 0 11,39 c 0,-0.1 -0.024,-0.2 -0.031,-0.3 l 8.789,-2.366 a 13.052,13.052 0 0 0 5.559,6.8 L 23.2,47.36 a 7.015,7.015 0 1 0 1.788,0.9 L 27.1,44.034 a 12.926,12.926 0 0 0 13.347,-2.173 l 4.814,4.814 A 9.995,9.995 0 1 0 53,43 Z m 6,-14 a 2,2 0 1 1 -2,2 2,2 0 0 1 2,-2 z M 43,8 a 4,4 0 1 1 -4,4 4,4 0 0 1 4,-4 z M 6,42 a 3,3 0 1 1 3,-3 3,3 0 0 1 -3,3 z m 20,12 a 5,5 0 1 1 -5,-5 5.006,5.006 0 0 1 5,5 z M 3,11 A 8,8 0 1 1 16.927,16.354 0.977,0.977 0 0 0 17,16 5.958,5.958 0 0 0 15.244,11.757 6.031,6.031 0 0 0 13.9,10.745 4,4 0 1 0 8.111,10.745 6,6 0 0 0 5,16 1,1 0 0 0 5.07,16.351 7.961,7.961 0 0 1 3,11 Z m 8,-1 a 2,2 0 1 1 2,-2 2,2 0 0 1 -2,2 z m 0,2 a 4,4 0 0 1 3.873,3 H 7.126 A 4.007,4.007 0 0 1 11,12 Z M 5.65,16.93 A 0.988,0.988 0 0 0 6,17 h 10 a 0.978,0.978 0 0 0 0.355,-0.072 7.95,7.95 0 0 1 -10.7,0 z M 21,32 A 11,11 0 1 1 32,43 11.013,11.013 0 0 1 21,32 Z M 47.65,58.93 A 0.988,0.988 0 0 0 48,59 h 10 a 0.978,0.978 0 0 0 0.355,-0.072 7.95,7.95 0 0 1 -10.7,0 z M 53,52 a 2,2 0 1 1 2,-2 2,2 0 0 1 -2,2 z m 0,2 a 4,4 0 0 1 3.873,3 H 49.126 A 4.007,4.007 0 0 1 53,54 Z m 5.926,4.354 A 0.977,0.977 0 0 0 59,58 5.958,5.958 0 0 0 57.244,53.757 6.031,6.031 0 0 0 55.9,52.745 a 4,4 0 1 0 -5.789,0 A 6,6 0 0 0 47,58 a 1,1 0 0 0 0.07,0.351 8,8 0 1 1 11.857,0 z"
         id="path2805"
         style="fill:#34495e;fill-opacity:1" />
    </g>
  </g>
</svg>
