<?xml version="1.0" encoding="UTF-8" standalone="no"?>
<svg
   xmlns:dc="http://purl.org/dc/elements/1.1/"
   xmlns:cc="http://creativecommons.org/ns#"
   xmlns:rdf="http://www.w3.org/1999/02/22-rdf-syntax-ns#"
   xmlns:svg="http://www.w3.org/2000/svg"
   xmlns="http://www.w3.org/2000/svg"
   xmlns:sodipodi="http://sodipodi.sourceforge.net/DTD/sodipodi-0.dtd"
   xmlns:inkscape="http://www.inkscape.org/namespaces/inkscape"
   width="50"
   height="77.199997"
   viewBox="0 0 13.229166 20.425833"
   version="1.1"
   id="svg853"
   inkscape:version="1.0.2 (e86c870879, 2021-01-15, custom)"
   sodipodi:docname="easy_logo.svg">
  <defs
     id="defs847" />
  <sodipodi:namedview
     id="base"
     pagecolor="#ffffff"
     bordercolor="#666666"
     borderopacity="1.0"
     inkscape:pageopacity="0.0"
     inkscape:pageshadow="2"
     inkscape:zoom="2.8"
     inkscape:cx="65.864242"
     inkscape:cy="56.063685"
     inkscape:document-units="px"
     inkscape:current-layer="layer1"
     inkscape:document-rotation="0"
     showgrid="false"
     units="px"
     inkscape:window-width="1267"
     inkscape:window-height="728"
     inkscape:window-x="84"
     inkscape:window-y="188"
     inkscape:window-maximized="0" />
  <metadata
     id="metadata850">
    <rdf:RDF>
      <cc:Work
         rdf:about="">
        <dc:format>image/svg+xml</dc:format>
        <dc:type
           rdf:resource="http://purl.org/dc/dcmitype/StillImage" />
        <dc:title></dc:title>
      </cc:Work>
    </rdf:RDF>
  </metadata>
  <g
     inkscape:label="Layer 1"
     inkscape:groupmode="layer"
     id="layer1">
    <g
       id="g2830"
       transform="matrix(0.03980964,0,0,0.03980964,-3.6854416,0.14676663)"
       style="fill:#34495e;fill-opacity:1">
      <path
         d="m 379.323,209.665 c -1.086,-2.247 -1.552,-4.748 -1.346,-7.234 l 7.221,-87.271 c 0.812,-9.822 -2.825,-19.343 -9.979,-26.122 -7.152,-6.779 -16.863,-9.898 -26.619,-8.562 -7.51,1.03 -14.778,3.481 -21.365,7.175 -0.52,-0.713 -1.056,-1.417 -1.628,-2.1 -13.591,-16.215 -37.837,-18.352 -54.05,-4.767 l -58.731,49.153 v -10.996 c 0,-0.82 0.244,-1.61 0.707,-2.287 l 12.181,-17.825 c 2.337,-3.42 1.459,-8.087 -1.961,-10.424 -3.422,-2.339 -8.088,-1.459 -10.424,1.961 l -12.181,17.825 c -2.173,3.18 -3.322,6.897 -3.322,10.75 v 23.55 l -46.74,39.118 v -70.641 c 0,-8.085 2.411,-15.887 6.973,-22.562 l 42.898,-62.78 c 3.522,-5.154 8.84,-8.628 14.975,-9.782 6.135,-1.154 12.351,0.149 17.506,3.672 5.154,3.521 8.628,8.84 9.782,14.975 1.154,6.134 -0.149,12.352 -3.671,17.505 l -7.871,11.52 c -2.337,3.421 -1.458,8.087 1.961,10.424 3.418,2.337 8.087,1.458 10.423,-1.961 l 7.871,-11.52 c 5.782,-8.462 7.923,-18.669 6.028,-28.741 C 256.066,21.646 250.362,12.913 241.9,7.131 233.439,1.349 223.232,-0.792 213.158,1.103 203.086,2.998 194.354,8.702 188.572,17.164 l -42.898,62.78 c -6.272,9.18 -9.588,19.908 -9.588,31.025 v 83.195 l -22.494,18.825 C 97.425,226.52 88.76,247.146 90.413,268.163 l 4.775,60.706 c 0.309,3.93 3.593,6.913 7.469,6.912 0.197,0 0.396,-0.008 0.596,-0.023 4.129,-0.324 7.214,-3.936 6.889,-8.064 l -4.775,-60.706 c -1.273,-16.188 5.401,-32.074 17.853,-42.495 L 281.188,92.285 c 9.876,-8.277 24.646,-6.975 32.923,2.901 8.276,9.877 6.975,24.646 -2.902,32.923 L 228.98,197.02 c -5.108,1.235 -9.998,3.692 -14.236,7.379 l -40.192,34.984 c -3.124,2.72 -3.452,7.457 -0.733,10.581 2.72,3.124 7.456,3.451 10.582,0.733 l 40.192,-34.984 c 6.99,-6.087 17.189,-6.145 24.25,-0.139 l 60.788,51.705 c 4.755,4.045 7.65,9.699 8.152,15.921 0.503,6.223 -1.448,12.268 -5.493,17.022 -2.957,3.476 -6.865,5.976 -11.198,7.254 l -42.53,-36.175 c -12.756,-10.851 -31.184,-10.745 -43.817,0.25 l -40.192,34.984 c -3.124,2.72 -3.452,7.457 -0.733,10.581 2.72,3.125 7.456,3.452 10.582,0.733 l 40.192,-34.984 c 6.99,-6.086 17.189,-6.146 24.25,-0.139 l 60.788,51.705 c 4.755,4.045 7.65,9.699 8.152,15.921 0.503,6.223 -1.448,12.268 -5.493,17.022 -4.044,4.755 -9.698,7.65 -15.92,8.152 -6.231,0.501 -12.269,-1.449 -17.022,-5.493 l -37.628,-32.006 c -2.978,-2.533 -7.399,-2.354 -10.163,0.409 l -11.167,11.167 c -2.929,2.93 -2.929,7.678 0,10.607 2.929,2.928 7.678,2.928 10.606,0 l 6.275,-6.275 32.357,27.523 c 7.001,5.956 15.706,9.146 24.798,9.146 1.045,0 2.097,-0.043 3.15,-0.128 10.215,-0.824 19.498,-5.578 26.139,-13.385 6.641,-7.807 9.844,-17.732 9.019,-27.948 -0.824,-10.216 -5.578,-19.499 -13.385,-26.14 l -5.591,-4.755 c 3.737,-2.171 7.115,-4.969 9.957,-8.31 13.708,-16.115 11.75,-40.379 -4.366,-54.088 l -26.951,-22.924 16.289,-83.137 12.157,-10.188 c 7.855,-6.582 12.677,-15.83 13.577,-26.04 0.366,-4.156 0.053,-8.265 -0.877,-12.211 5.222,-3.115 11.047,-5.188 17.094,-6.016 5.23,-0.72 10.431,0.955 14.265,4.588 3.833,3.633 5.782,8.734 5.347,13.998 l -7.221,87.271 c -0.427,5.154 0.539,10.342 2.791,15 l 13.355,27.621 c 16.827,34.803 17.396,74.989 1.561,110.255 l -8.587,19.124 c -1.697,3.779 -0.009,8.218 3.77,9.914 0.998,0.448 2.041,0.66 3.068,0.66 2.862,0 5.597,-1.648 6.846,-4.43 l 8.587,-19.124 c 17.656,-39.319 17.021,-84.125 -1.74,-122.929 z M 279.295,221.786 258.56,204.149 c -2.609,-2.219 -5.457,-3.972 -8.442,-5.275 l 40.279,-33.754 z"
         id="path2818"
         style="fill:#34495e;fill-opacity:1" />
      <path
         d="m 368.901,398.734 c -3.779,-1.696 -8.217,-0.011 -9.914,3.77 l -19.208,42.775 c -0.434,0.966 -0.658,2.013 -0.658,3.072 v 56.886 c 0,4.143 3.357,7.5 7.5,7.5 4.143,0 7.5,-3.357 7.5,-7.5 v -55.279 l 18.55,-41.31 c 1.697,-3.778 0.008,-8.217 -3.77,-9.914 z"
         id="path2820"
         style="fill:#34495e;fill-opacity:1" />
      <path
         d="m 325.358,46.674 c 4.143,0 7.5,-3.357 7.5,-7.5 V 7.5 c 0,-4.143 -3.357,-7.5 -7.5,-7.5 -4.143,0 -7.5,3.357 -7.5,7.5 v 31.674 c 0,4.142 3.358,7.5 7.5,7.5 z"
         id="path2822"
         style="fill:#34495e;fill-opacity:1" />
      <path
         d="m 357.376,54.134 c 1.156,0.644 2.407,0.948 3.643,0.948 2.633,0 5.188,-1.389 6.56,-3.852 L 382.99,23.558 c 2.015,-3.619 0.715,-8.187 -2.903,-10.202 -3.619,-2.015 -8.187,-0.715 -10.202,2.903 l -15.411,27.672 c -2.016,3.62 -0.716,8.187 2.902,10.203 z"
         id="path2824"
         style="fill:#34495e;fill-opacity:1" />
      <path
         d="m 421.398,51.654 c -2.181,-3.521 -6.802,-4.607 -10.325,-2.427 l -26.928,16.677 c -3.521,2.181 -4.608,6.804 -2.427,10.325 1.419,2.291 3.872,3.552 6.383,3.552 1.348,0 2.712,-0.363 3.942,-1.125 l 26.928,-16.677 c 3.522,-2.18 4.609,-6.803 2.427,-10.325 z"
         id="path2826"
         style="fill:#34495e;fill-opacity:1" />
      <path
         d="M 134.505,410.592 C 122.742,395.81 115.231,378.073 112.783,359.3 c -0.536,-4.106 -4.295,-6.994 -8.407,-6.468 -4.107,0.536 -7.003,4.3 -6.467,8.407 2.8,21.479 11.396,41.775 24.858,58.692 l 30.944,38.889 v 45.929 c 0,4.143 3.358,7.5 7.5,7.5 4.142,0 7.5,-3.357 7.5,-7.5 V 456.2 c 0,-1.696 -0.575,-3.343 -1.631,-4.67 z"
         id="path2828"
         style="fill:#34495e;fill-opacity:1" />
    </g>
  </g>
</svg>
