<?xml version="1.0" encoding="UTF-8" standalone="no"?>
<svg
   xmlns:dc="http://purl.org/dc/elements/1.1/"
   xmlns:cc="http://creativecommons.org/ns#"
   xmlns:rdf="http://www.w3.org/1999/02/22-rdf-syntax-ns#"
   xmlns:svg="http://www.w3.org/2000/svg"
   xmlns="http://www.w3.org/2000/svg"
   xmlns:sodipodi="http://sodipodi.sourceforge.net/DTD/sodipodi-0.dtd"
   xmlns:inkscape="http://www.inkscape.org/namespaces/inkscape"
   width="57.400002"
   height="70"
   viewBox="0 0 15.187084 18.520834"
   version="1.1"
   id="svg971"
   inkscape:version="1.0.2 (e86c870879, 2021-01-15, custom)"
   sodipodi:docname="fast_logo.svg">
  <defs
     id="defs965" />
  <sodipodi:namedview
     id="base"
     pagecolor="#ffffff"
     bordercolor="#666666"
     borderopacity="1.0"
     inkscape:pageopacity="0.0"
     inkscape:pageshadow="2"
     inkscape:zoom="3.959798"
     inkscape:cx="34.893901"
     inkscape:cy="48.063801"
     inkscape:document-units="px"
     inkscape:current-layer="layer1"
     inkscape:document-rotation="0"
     showgrid="false"
     units="px"
     inkscape:window-width="1267"
     inkscape:window-height="728"
     inkscape:window-x="7"
     inkscape:window-y="81"
     inkscape:window-maximized="0" />
  <metadata
     id="metadata968">
    <rdf:RDF>
      <cc:Work
         rdf:about="">
        <dc:format>image/svg+xml</dc:format>
        <dc:type
           rdf:resource="http://purl.org/dc/dcmitype/StillImage" />
        <dc:title></dc:title>
      </cc:Work>
    </rdf:RDF>
  </metadata>
  <g
     inkscape:label="Layer 1"
     inkscape:groupmode="layer"
     id="layer1">
    <g
       id="g947"
       transform="matrix(-0.0711437,-0.43995299,-0.43995299,0.0711437,270.48307,13.293262)"
       style="fill:#34495e;fill-opacity:1">
      <path
         style="fill:#34495e;fill-opacity:1;stroke-width:0.119929"
         d="m 87.134246,599.1605 0.530327,-2.11807 -1.462419,-0.57734 -1.004529,1.6555 c 0,0 0.553834,1.50224 -0.06128,2.70309 4.79e-4,1.2e-4 0.770186,-1.31095 1.997904,-1.66318 z m -0.982462,-0.97191 c 0.180014,-0.0738 0.387492,0.0104 0.461848,0.18721 0.07496,0.17678 -0.01043,0.3803 -0.190448,0.45405 -0.180014,0.0738 -0.387492,-0.0104 -0.461848,-0.1872 -0.07568,-0.1775 0.0098,-0.38102 0.190448,-0.45406 z"
         id="path936" />
      <path
         style="fill:#34495e;fill-opacity:1;stroke-width:0.119929"
         d="m 102.47705,574.59404 c -4.211316,3.45397 -9.724591,10.56866 -14.400279,18.87965 l -0.0026,-0.003 -0.817319,1.44227 0.871527,0.33532 0.460529,-1.21332 c 2.494412,-4.49628 9.261429,-16.23844 21.634912,-24.03997 0,0 4.6066,-2.74363 9.14533,-6.53807 -1.10503,0.92369 -3.28498,2.08149 -4.46701,2.82841 -3.10233,1.96013 -6.93072,3.80224 -12.42505,8.30895 z"
         id="path938" />
      <path
         style="fill:#34495e;fill-opacity:1;stroke-width:0.119929"
         d="m 87.467529,586.91607 c -0.957636,3.38477 -0.902828,5.96265 -0.532246,6.67107 h 0.579259 c 1.599498,-3.31305 9.303164,-15.31415 14.098178,-19.07069 4.96796,-3.89231 8.80018,-6.15706 12.02329,-7.80873 1.13177,-0.57986 2.29281,-1.36527 3.33979,-2.15261 1.27137,-1.00261 2.56025,-2.07502 3.68879,-3.12452 l -3.27131,2.14542 1.45858,-2.23093 -2.78476,2.83165 1.81213,-3.08926 c -4.287,0.38677 -8.2653,2.53159 -8.2653,2.53159 -1.59158,1.88781 -2.87338,4.89096 -2.87338,4.89096 -0.0444,-1.50164 0.97262,-3.7755 0.97262,-3.7755 -0.75147,0.34312 -3.60663,1.97392 -3.60663,1.97392 -1.39658,1.15852 -1.83037,4.20473 -1.83037,4.20473 -0.26552,-1.20158 0.66273,-3.51789 0.66273,-3.51789 -4.022789,2.31703 -6.896178,6.26403 -6.896178,6.26403 -1.988909,3.90406 -0.353552,6.95027 -0.972627,6.22098 -0.619076,-0.72929 -0.485954,-3.38933 -0.485954,-3.38933 -4.199569,4.03323 -4.641149,5.96337 -4.641149,5.96337 -0.707103,1.71619 -1.326179,6.30709 -1.326179,6.30709 -0.397926,-0.42923 0,-2.83165 0,-2.83165 -1.016882,2.14542 -0.530328,4.16167 -0.530328,4.16167 -0.485954,-0.1721 -0.618956,-3.17537 -0.618956,-3.17537 z"
         id="path940" />
      <path
         style="fill:#34495e;fill-opacity:1;stroke-width:0.119929"
         d="m 120.66519,562.78939 c 0,0 -1.61701,1.56688 -3.68879,3.12452 -3.24781,2.56157 -6.37497,4.65554 -6.37497,4.65554 -12.250906,7.23918 -19.077288,19.05306 -21.33352,23.1038 h 1.199534 c 0.42395,-0.33988 1.060655,-0.59617 3.71949,-1.36588 3.359343,-0.97262 5.363244,-3.00315 5.363244,-3.00315 0,0 -3.064557,1.71619 -4.508747,1.54469 -1.44419,-0.1715 -3.384767,0.37178 -3.384767,0.37178 0,0 -0.741044,-0.34311 2.913205,-0.88651 3.654249,-0.5434 9.665831,-4.63336 9.665831,-4.63336 0,0 -2.29869,0.94385 -3.35934,0.85774 -1.060659,-0.0861 -3.683515,0 -3.683515,0 1.738377,-0.40057 3.359345,-0.1715 6.011585,-1.17279 2.65224,-1.00129 2.50484,-0.91518 2.50484,-0.91518 3.00579,-1.00129 4.25438,-4.11862 4.25438,-4.11862 -0.5199,0.20028 -4.49052,0.68624 -6.13751,0.20028 -1.64711,-0.48595 -4.453218,0 -4.453218,0 2.652238,-0.88652 3.241928,-0.48595 3.889668,-0.51461 0.64834,-0.0287 2.74099,0.14283 6.89618,-1.28697 4.1552,-1.42979 5.33386,-3.20343 5.33386,-3.20343 l -2.80227,0.37442 c 1.82977,-0.30786 3.89231,-1.51855 3.89231,-1.51855 -1.26741,0.34312 -3.24193,0.51462 -3.24193,0.51462 2.32807,-0.51462 3.62487,-1.22964 3.62487,-1.22964 2.18067,-1.65886 2.68162,-4.11861 2.68162,-4.11861 -3.09454,1.05801 -5.54002,0.57206 -5.54002,0.57206 4.24394,-0.28567 5.42261,-1.37307 6.01158,-1.63008 0.58969,-0.25761 0.83231,-1.32282 0.83231,-1.32282 -2.1441,0.77234 -4.57531,0.90079 -4.57531,0.90079 2.63006,-0.40764 4.88377,-1.73778 4.88377,-1.73778 v -1.33145 c -1.01688,0.57925 -2.80623,1.02995 -2.80623,1.02995 l 2.78464,-1.8017 c 0.15651,-0.90139 -0.57278,-1.45906 -0.57278,-1.45906 z"
         id="path942" />
      <polygon
         style="fill:#34495e;fill-opacity:1"
         points="26.124,284.458 23.551,290.571 37.361,296.103 39.933,289.989 "
         id="polygon944"
         transform="matrix(0.11992941,0,0,0.11992941,83.485873,561.08747)" />
    </g>
  </g>
</svg>
