<?xml version="1.0" encoding="UTF-8" standalone="no"?>
<svg
   xmlns:dc="http://purl.org/dc/elements/1.1/"
   xmlns:cc="http://creativecommons.org/ns#"
   xmlns:rdf="http://www.w3.org/1999/02/22-rdf-syntax-ns#"
   xmlns:svg="http://www.w3.org/2000/svg"
   xmlns="http://www.w3.org/2000/svg"
   xmlns:sodipodi="http://sodipodi.sourceforge.net/DTD/sodipodi-0.dtd"
   xmlns:inkscape="http://www.inkscape.org/namespaces/inkscape"
   width="45"
   height="45"
   viewBox="0 0 11.90625 11.906251"
   version="1.1"
   id="svg2047"
   inkscape:version="1.0.2 (e86c870879, 2021-01-15, custom)"
   sodipodi:docname="flexible_logo_45px.svg">
  <defs
     id="defs2041" />
  <sodipodi:namedview
     id="base"
     pagecolor="#ffffff"
     bordercolor="#666666"
     borderopacity="1.0"
     inkscape:pageopacity="0.0"
     inkscape:pageshadow="2"
     inkscape:zoom="5.6"
     inkscape:cx="28.899956"
     inkscape:cy="34.398127"
     inkscape:document-units="px"
     inkscape:current-layer="layer1"
     inkscape:document-rotation="0"
     showgrid="false"
     units="px"
     inkscape:window-width="1267"
     inkscape:window-height="728"
     inkscape:window-x="78"
     inkscape:window-y="51"
     inkscape:window-maximized="0" />
  <metadata
     id="metadata2044">
    <rdf:RDF>
      <cc:Work
         rdf:about="">
        <dc:format>image/svg+xml</dc:format>
        <dc:type
           rdf:resource="http://purl.org/dc/dcmitype/StillImage" />
        <dc:title></dc:title>
      </cc:Work>
    </rdf:RDF>
  </metadata>
  <g
     inkscape:label="Layer 1"
     inkscape:groupmode="layer"
     id="layer1">
    <g
       id="g1897"
       transform="matrix(0.02325439,0,0,0.02325439,-0.04724254,3.2890216e-5)"
       style="fill:#34495e;fill-opacity:1">
      <g
         id="g1831"
         style="fill:#34495e;fill-opacity:1">
        <g
           id="g1829"
           style="fill:#34495e;fill-opacity:1">
          <path
             d="m 509.421,196.955 -94.575,-82.038 c -2.213,-1.919 -5.341,-2.369 -8.006,-1.155 -2.665,1.217 -4.374,3.875 -4.374,6.804 v 42.715 l -37.826,0.012 -0.171,-0.004 c -25.662,-0.568 -50.379,5.557 -72.148,17.576 V 109.06 h 46.818 c 2.947,0 5.618,-1.73 6.824,-4.419 1.206,-2.689 0.721,-5.835 -1.24,-8.035 L 261.591,3.278 c -1.419,-1.594 -3.451,-2.505 -5.586,-2.505 -2.135,0 -4.165,0.911 -5.586,2.505 l -83.132,93.33 c -1.96,2.2 -2.445,5.346 -1.24,8.035 1.206,2.689 3.878,4.419 6.824,4.419 h 46.818 v 32.93 c 0,4.131 3.349,7.479 7.479,7.479 4.13,0 7.479,-3.349 7.479,-7.479 v -40.409 c 0,-4.131 -3.349,-7.479 -7.479,-7.479 h -37.62 l 66.454,-74.606 66.454,74.606 h -37.618 c -4.131,0 -7.479,3.349 -7.479,7.479 v 88.82 c -5.25,3.83 -10.277,8.036 -15.031,12.621 -11.451,11.042 -20.731,23.537 -27.678,37.134 v -68.249 c 0,-4.131 -3.349,-7.479 -7.479,-7.479 -4.131,0 -7.479,3.349 -7.479,7.479 V 276.907 C 197.931,264.882 173.227,258.753 147.554,259.33 l -0.181,0.004 -37.841,-0.012 v -42.715 c 0,-2.929 -1.709,-5.589 -4.374,-6.804 -2.666,-1.216 -5.794,-0.765 -8.006,1.155 L 2.579,292.995 C 0.94,294.415 0,296.476 0,298.644 c 0,2.168 0.94,4.229 2.579,5.649 l 29.129,25.267 c 3.121,2.708 7.844,2.371 10.551,-0.749 2.706,-3.12 2.371,-7.844 -0.749,-10.551 L 18.894,298.642 94.576,232.993 v 33.803 c 0,4.13 3.347,7.478 7.477,7.479 l 45.407,0.015 c 0.048,0 0.095,0 0.143,-0.001 l 0.257,-0.006 c 34.399,-0.75 66.872,11.867 91.427,35.547 24.289,23.422 37.774,54.686 38.062,88.139 v 17.728 c 0,4.131 3.349,7.479 7.479,7.479 0.002,0 0.004,0 0.007,0 0.002,0 0.005,0 0.007,0 4.131,0 7.479,-3.349 7.479,-7.479 v -16.636 c 0,-0.365 -0.011,-0.728 -0.014,-1.093 v -94.946 c 0,-18.415 7.356,-35.649 20.712,-48.53 13.351,-12.875 30.985,-19.763 49.698,-19.355 0.053,0.001 0.106,0.009 0.16,0.001 l 39.589,-0.015 v 49.518 c 0,2.929 1.709,5.588 4.374,6.804 2.665,1.216 5.793,0.764 8.006,-1.155 l 94.575,-82.038 c 1.638,-1.42 2.579,-3.482 2.579,-5.649 0,-2.167 -0.94,-4.228 -2.579,-5.648 z m -91.996,71.299 v -40.611 c 0,-1.984 -0.789,-3.886 -2.192,-5.289 -1.402,-1.402 -3.305,-2.19 -5.287,-2.19 -0.001,0 -0.002,0 -0.003,0 l -46.992,0.018 c -22.653,-0.436 -44.095,7.904 -60.316,23.545 -16.307,15.725 -25.287,36.783 -25.287,59.297 v 33.298 c -6.962,-13.658 -16.249,-26.236 -27.678,-37.258 -4.453,-4.294 -9.141,-8.257 -14.029,-11.891 3.553,-28.059 16.325,-53.374 37.073,-73.382 24.555,-23.68 57.016,-36.326 91.507,-35.544 0.013,0 0.119,0.003 0.131,0.003 0.063,0.002 0.132,0.008 0.19,0.003 l 45.407,-0.015 c 4.13,-0.001 7.477,-3.35 7.477,-7.479 v -33.803 l 75.681,65.649 z"
             id="path1827"
             style="fill:#34495e;fill-opacity:1" />
        </g>
      </g>
      <g
         id="g1837"
         style="fill:#34495e;fill-opacity:1">
        <g
           id="g1835"
           style="fill:#34495e;fill-opacity:1">
          <path
             d="m 284.841,438.136 c -4.131,0 -7.479,3.349 -7.479,7.479 v 50.652 h -42.711 v -97.205 c 0,-22.514 -8.98,-43.572 -25.287,-59.297 -16.219,-15.64 -37.661,-24.005 -60.315,-23.545 l -46.993,-0.018 c -10e-4,0 -0.002,0 -0.003,0 -1.982,0 -3.885,0.788 -5.287,2.19 -1.403,1.403 -2.192,3.305 -2.192,5.289 v 40.612 l -30.46,-26.422 c -3.12,-2.706 -7.845,-2.37 -10.551,0.749 -2.706,3.12 -2.371,7.844 0.749,10.551 l 42.839,37.161 c 2.212,1.919 5.341,2.37 8.006,1.155 2.665,-1.217 4.374,-3.875 4.374,-6.804 v -49.518 l 39.588,0.015 c 0.06,0.007 0.107,0 0.16,-0.001 18.701,-0.39 36.348,6.481 49.699,19.356 13.356,12.878 20.712,30.114 20.712,48.529 v 104.684 c 0,4.131 3.349,7.479 7.479,7.479 h 57.669 c 4.131,0 7.479,-3.349 7.479,-7.479 v -58.133 c 0.003,-4.131 -3.345,-7.479 -7.476,-7.479 z"
             id="path1833"
             style="fill:#34495e;fill-opacity:1" />
        </g>
      </g>
      <g
         id="g1839"
         style="fill:#34495e;fill-opacity:1" />
      <g
         id="g1841"
         style="fill:#34495e;fill-opacity:1" />
      <g
         id="g1843"
         style="fill:#34495e;fill-opacity:1" />
      <g
         id="g1845"
         style="fill:#34495e;fill-opacity:1" />
      <g
         id="g1847"
         style="fill:#34495e;fill-opacity:1" />
      <g
         id="g1849"
         style="fill:#34495e;fill-opacity:1" />
      <g
         id="g1851"
         style="fill:#34495e;fill-opacity:1" />
      <g
         id="g1853"
         style="fill:#34495e;fill-opacity:1" />
      <g
         id="g1855"
         style="fill:#34495e;fill-opacity:1" />
      <g
         id="g1857"
         style="fill:#34495e;fill-opacity:1" />
      <g
         id="g1859"
         style="fill:#34495e;fill-opacity:1" />
      <g
         id="g1861"
         style="fill:#34495e;fill-opacity:1" />
      <g
         id="g1863"
         style="fill:#34495e;fill-opacity:1" />
      <g
         id="g1865"
         style="fill:#34495e;fill-opacity:1" />
      <g
         id="g1867"
         style="fill:#34495e;fill-opacity:1" />
    </g>
  </g>
</svg>
