<?xml version="1.0" encoding="UTF-8" standalone="no"?>
<svg
   xmlns:dc="http://purl.org/dc/elements/1.1/"
   xmlns:cc="http://creativecommons.org/ns#"
   xmlns:rdf="http://www.w3.org/1999/02/22-rdf-syntax-ns#"
   xmlns:svg="http://www.w3.org/2000/svg"
   xmlns="http://www.w3.org/2000/svg"
   xmlns:sodipodi="http://sodipodi.sourceforge.net/DTD/sodipodi-0.dtd"
   xmlns:inkscape="http://www.inkscape.org/namespaces/inkscape"
   width="30"
   height="30"
   viewBox="0 0 7.9374998 7.9375002"
   version="1.1"
   id="svg912"
   inkscape:version="1.0.2 (e86c870879, 2021-01-15, custom)"
   sodipodi:docname="framework_logo.svg">
  <defs
     id="defs906" />
  <sodipodi:namedview
     id="base"
     pagecolor="#ffffff"
     bordercolor="#666666"
     borderopacity="1.0"
     inkscape:pageopacity="0.0"
     inkscape:pageshadow="2"
     inkscape:zoom="11.2"
     inkscape:cx="21.180948"
     inkscape:cy="16.19619"
     inkscape:document-units="px"
     inkscape:current-layer="layer1"
     inkscape:document-rotation="0"
     showgrid="false"
     units="px"
     inkscape:window-width="1267"
     inkscape:window-height="728"
     inkscape:window-x="83"
     inkscape:window-y="0"
     inkscape:window-maximized="0" />
  <metadata
     id="metadata909">
    <rdf:RDF>
      <cc:Work
         rdf:about="">
        <dc:format>image/svg+xml</dc:format>
        <dc:type
           rdf:resource="http://purl.org/dc/dcmitype/StillImage" />
        <dc:title></dc:title>
      </cc:Work>
    </rdf:RDF>
  </metadata>
  <g
     inkscape:label="Layer 1"
     inkscape:groupmode="layer"
     id="layer1">
    <g
       id="g1516"
       transform="matrix(0.01550293,0,0,0.01550293,-0.00630404,0.02823144)"
       style="fill:#ffffff">
      <path
         d="m 344.895,260.083 c 4.143,0 7.5,-3.358 7.5,-7.5 V 198.42 c 0,-3.126 -1.939,-5.925 -4.866,-7.022 l -88.895,-33.335 c -1.699,-0.637 -3.568,-0.637 -5.268,0 l -88.895,33.335 c -2.927,1.098 -4.866,3.896 -4.866,7.022 v 24.08 c 0,4.142 3.357,7.5 7.5,7.5 4.143,0 7.5,-3.358 7.5,-7.5 v -13.257 l 73.895,27.71 v 99.139 l -73.895,-27.71 v -50.798 c 0,-4.142 -3.357,-7.5 -7.5,-7.5 -4.143,0 -7.5,3.358 -7.5,7.5 v 55.996 c 0,3.126 1.939,5.925 4.866,7.022 l 88.895,33.335 c 10e-4,-0.006 0.003,-0.014 0.004,-0.021 0.845,0.317 1.733,0.498 2.631,0.498 0.887,0 1.779,-0.157 2.633,-0.478 l 88.895,-33.335 c 2.927,-1.098 4.866,-3.896 4.866,-7.022 v -26.038 c 0,-4.142 -3.357,-7.5 -7.5,-7.5 -4.143,0 -7.5,3.358 -7.5,7.5 v 20.84 L 263.5,336.092 v -99.139 l 73.895,-27.71 v 43.34 c 0,4.143 3.357,7.5 7.5,7.5 z M 256,223.746 188.466,198.421 256,173.095 l 67.534,25.326 z"
         id="path1498"
         style="fill:#ffffff" />
      <path
         d="m 248.5,74.86 v 53.86 c 0,4.142 3.357,7.5 7.5,7.5 4.143,0 7.5,-3.358 7.5,-7.5 V 74.86 C 280.765,71.371 293.805,56.083 293.805,37.805 293.805,16.959 276.846,0 256,0 c -20.846,0 -37.805,16.959 -37.805,37.805 0,18.278 13.04,33.566 30.305,37.055 z M 256,15 c 12.574,0 22.805,10.23 22.805,22.805 0,12.575 -10.231,22.805 -22.805,22.805 -12.574,0 -22.805,-10.23 -22.805,-22.805 C 233.195,25.23 243.426,15 256,15 Z"
         id="path1500"
         style="fill:#ffffff" />
      <path
         d="m 400.287,348.34 c -11.623,0 -22.365,3.837 -31.029,10.311 l -17.953,-17.953 c -2.93,-2.929 -7.678,-2.929 -10.607,0 -2.929,2.929 -2.929,7.678 0,10.606 l 17.954,17.953 c -6.474,8.664 -10.311,19.407 -10.311,31.029 0,28.644 23.304,51.947 51.947,51.947 28.643,0 51.947,-23.303 51.947,-51.947 0,-28.644 -23.304,-51.946 -51.948,-51.946 z m 0,88.894 c -20.373,0 -36.947,-16.575 -36.947,-36.947 0,-20.372 16.574,-36.947 36.947,-36.947 20.373,0 36.947,16.575 36.947,36.947 0,20.372 -16.574,36.947 -36.947,36.947 z"
         id="path1502"
         style="fill:#ffffff" />
      <path
         d="m 111.713,163.66 c 11.623,0 22.365,-3.837 31.029,-10.311 l 17.953,17.953 c 1.465,1.464 3.385,2.197 5.304,2.197 1.919,0 3.839,-0.732 5.304,-2.197 2.929,-2.929 2.929,-7.678 0,-10.606 L 153.35,142.743 c 6.474,-8.664 10.311,-19.407 10.311,-31.029 0,-28.644 -23.304,-51.947 -51.947,-51.947 -28.643,0 -51.947,23.303 -51.947,51.947 0,28.644 23.302,51.946 51.946,51.946 z m 0,-88.894 c 20.373,0 36.947,16.575 36.947,36.947 0,20.372 -16.574,36.947 -36.947,36.947 -20.373,0 -36.947,-16.575 -36.947,-36.947 0,-20.372 16.574,-36.947 36.947,-36.947 z"
         id="path1504"
         style="fill:#ffffff" />
      <path
         d="m 263.5,437.14 v -53.86 c 0,-4.142 -3.357,-7.5 -7.5,-7.5 -4.143,0 -7.5,3.358 -7.5,7.5 v 53.86 c -17.265,3.489 -30.305,18.777 -30.305,37.055 0,20.846 16.959,37.805 37.805,37.805 20.846,0 37.805,-16.959 37.805,-37.805 0,-18.278 -13.04,-33.566 -30.305,-37.055 z M 256,497 c -12.574,0 -22.805,-10.23 -22.805,-22.805 0,-12.575 10.231,-22.805 22.805,-22.805 12.574,0 22.805,10.23 22.805,22.805 C 278.805,486.77 268.574,497 256,497 Z"
         id="path1506"
         style="fill:#ffffff" />
      <path
         d="m 474.195,218.195 c -18.278,0 -33.566,13.04 -37.055,30.305 h -53.86 c -4.143,0 -7.5,3.358 -7.5,7.5 0,4.142 3.357,7.5 7.5,7.5 h 53.86 c 3.489,17.265 18.777,30.305 37.055,30.305 20.846,0 37.805,-16.959 37.805,-37.805 0,-20.846 -16.959,-37.805 -37.805,-37.805 z m 0,60.61 c -12.574,0 -22.805,-10.23 -22.805,-22.805 0,-12.575 10.23,-22.805 22.805,-22.805 12.575,0 22.805,10.23 22.805,22.805 0,12.575 -10.23,22.805 -22.805,22.805 z"
         id="path1508"
         style="fill:#ffffff" />
      <path
         d="m 74.86,263.5 h 53.86 c 4.143,0 7.5,-3.358 7.5,-7.5 0,-4.142 -3.357,-7.5 -7.5,-7.5 H 74.86 C 71.371,231.235 56.083,218.195 37.805,218.195 16.959,218.195 0,235.154 0,256 c 0,20.846 16.959,37.805 37.805,37.805 18.278,0 33.566,-13.04 37.055,-30.305 z M 37.805,278.805 C 25.23,278.805 15,268.575 15,256 c 0,-12.575 10.23,-22.805 22.805,-22.805 12.575,0 22.804,10.23 22.804,22.805 0,12.575 -10.23,22.805 -22.804,22.805 z"
         id="path1510"
         style="fill:#ffffff" />
      <path
         d="m 346.001,173.499 c 1.919,0 3.839,-0.732 5.304,-2.197 l 17.953,-17.953 c 8.664,6.474 19.407,10.311 31.029,10.311 28.644,0 51.947,-23.303 51.947,-51.947 0,-28.644 -23.304,-51.947 -51.947,-51.947 -28.643,0 -51.947,23.303 -51.947,51.947 0,11.623 3.837,22.365 10.311,31.029 l -17.954,17.953 c -2.929,2.929 -2.929,7.678 0,10.606 1.465,1.466 3.385,2.198 5.304,2.198 z m 54.286,-98.733 c 20.373,0 36.947,16.575 36.947,36.947 0,20.372 -16.574,36.947 -36.947,36.947 -20.373,0 -36.947,-16.575 -36.947,-36.947 0,-20.372 16.574,-36.947 36.947,-36.947 z"
         id="path1512"
         style="fill:#ffffff" />
      <path
         d="m 160.695,340.698 -17.953,17.953 c -8.664,-6.474 -19.407,-10.311 -31.029,-10.311 -28.644,0 -51.947,23.303 -51.947,51.947 0,28.644 23.304,51.947 51.947,51.947 28.643,0 51.947,-23.303 51.947,-51.947 0,-11.623 -3.837,-22.365 -10.311,-31.029 l 17.953,-17.953 c 2.929,-2.929 2.929,-7.678 0,-10.606 -2.929,-2.93 -7.677,-2.93 -10.607,-0.001 z m -48.982,96.536 c -20.373,0 -36.947,-16.575 -36.947,-36.947 0,-20.372 16.574,-36.947 36.947,-36.947 20.373,0 36.947,16.575 36.947,36.947 0,20.372 -16.574,36.947 -36.947,36.947 z"
         id="path1514"
         style="fill:#ffffff" />
    </g>
  </g>
</svg>
