<?xml version="1.0" encoding="UTF-8" standalone="no"?>
<svg
   xmlns:dc="http://purl.org/dc/elements/1.1/"
   xmlns:cc="http://creativecommons.org/ns#"
   xmlns:rdf="http://www.w3.org/1999/02/22-rdf-syntax-ns#"
   xmlns:svg="http://www.w3.org/2000/svg"
   xmlns="http://www.w3.org/2000/svg"
   xmlns:sodipodi="http://sodipodi.sourceforge.net/DTD/sodipodi-0.dtd"
   xmlns:inkscape="http://www.inkscape.org/namespaces/inkscape"
   width="30"
   height="28.200001"
   viewBox="0 0 7.9374998 7.4612504"
   version="1.1"
   id="svg817"
   inkscape:version="1.0.2 (e86c870879, 2021-01-15, custom)"
   sodipodi:docname="frontend.svg">
  <defs
     id="defs811" />
  <sodipodi:namedview
     id="base"
     pagecolor="#ffffff"
     bordercolor="#666666"
     borderopacity="1.0"
     inkscape:pageopacity="0.0"
     inkscape:pageshadow="2"
     inkscape:zoom="7.9195959"
     inkscape:cx="20.031276"
     inkscape:cy="21.932636"
     inkscape:document-units="px"
     inkscape:current-layer="layer1"
     inkscape:document-rotation="0"
     showgrid="false"
     units="px"
     inkscape:window-width="1366"
     inkscape:window-height="705"
     inkscape:window-x="-8"
     inkscape:window-y="-8"
     inkscape:window-maximized="1" />
  <metadata
     id="metadata814">
    <rdf:RDF>
      <cc:Work
         rdf:about="">
        <dc:format>image/svg+xml</dc:format>
        <dc:type
           rdf:resource="http://purl.org/dc/dcmitype/StillImage" />
        <dc:title></dc:title>
      </cc:Work>
    </rdf:RDF>
  </metadata>
  <g
     inkscape:label="Layer 1"
     inkscape:groupmode="layer"
     id="layer1">
    <g
       id="g1408"
       transform="matrix(0.01550293,0,0,0.01550293,0.06595041,0.02332984)"
       style="fill:#ffffff;fill-opacity:1">
      <path
         d="m 92.308594,52.730469 c 0,-13.871094 -11.28125,-25.152344 -25.152344,-25.152344 C 53.285156,27.578125 42,38.859375 42,52.730469 c 0,13.871093 11.285156,25.152343 25.15625,25.152343 13.867188,0 25.152344,-11.28125 25.152344,-25.152343 z m -35.308594,0 c 0,-5.597657 4.558594,-10.152344 10.15625,-10.152344 5.597656,0 10.152344,4.554687 10.152344,10.152344 0,5.597656 -4.554688,10.152343 -10.152344,10.152343 C 61.558594,62.882812 57,58.328125 57,52.730469 Z m 0,0"
         id="path1396"
         style="fill:#ffffff;fill-opacity:1" />
      <path
         d="m 126.91406,77.882812 c 13.8711,0 25.15625,-11.28125 25.15625,-25.152343 0,-13.871094 -11.28515,-25.152344 -25.15625,-25.152344 -13.87109,0 -25.15234,11.28125 -25.15234,25.152344 0,13.871093 11.28125,25.152343 25.15234,25.152343 z m 0,-35.304687 c 5.60156,0 10.15625,4.554687 10.15625,10.152344 0,5.597656 -4.55859,10.152343 -10.15625,10.152343 -5.59765,0 -10.15234,-4.554687 -10.15234,-10.152343 0,-5.597657 4.55469,-10.152344 10.15234,-10.152344 z m 0,0"
         id="path1398"
         style="fill:#ffffff;fill-opacity:1" />
      <path
         d="m 186.67578,77.882812 c 13.86719,0 25.15234,-11.28125 25.15234,-25.152343 0,-13.871094 -11.28515,-25.152344 -25.15234,-25.152344 -13.87109,0 -25.15625,11.28125 -25.15625,25.152344 0,13.871093 11.28516,25.152343 25.15625,25.152343 z m 0,-35.304687 c 5.59766,0 10.15234,4.554687 10.15234,10.152344 0,5.597656 -4.55468,10.152343 -10.15234,10.152343 -5.60156,0 -10.15625,-4.554687 -10.15625,-10.152343 0,-5.597657 4.55469,-10.152344 10.15625,-10.152344 z m 0,0"
         id="path1400"
         style="fill:#ffffff;fill-opacity:1" />
      <path
         d="m 269.66797,60.230469 h 182.66406 c 4.14453,0 7.5,-3.355469 7.5,-7.5 0,-4.144531 -3.35547,-7.5 -7.5,-7.5 H 269.66797 c -4.14453,0 -7.5,3.355469 -7.5,7.5 0,4.144531 3.35547,7.5 7.5,7.5 z m 0,0"
         id="path1402"
         style="fill:#ffffff;fill-opacity:1" />
      <path
         d="M 480.68359,0.5 H 31.316406 C 14.050781,0.5 0,14.546875 0,31.816406 V 449.06641 c 0,17.26562 14.050781,31.3164 31.316406,31.3164 H 480.68359 C 497.94922,480.38281 512,466.33203 512,449.06641 V 31.816406 C 512,14.546875 497.94922,0.5 480.68359,0.5 Z m 0,464.88281 H 31.316406 C 22.320312,465.38281 15,458.0625 15,449.06641 V 104.96094 h 41.808594 c 4.144531,0 7.5,-3.35547 7.5,-7.500002 0,-4.140626 -3.355469,-7.5 -7.5,-7.5 H 15 V 31.816406 C 15,22.820312 22.320312,15.5 31.316406,15.5 H 480.68359 C 489.67969,15.5 497,22.820312 497,31.816406 V 89.960938 H 84.808594 c -4.140625,0 -7.5,3.359374 -7.5,7.5 0,4.144532 3.359375,7.500002 7.5,7.500002 H 497 v 344.10547 c 0,8.99609 -7.32031,16.3164 -16.31641,16.3164 z m 0,0"
         id="path1404"
         style="fill:#ffffff;fill-opacity:1" />
      <path
         d="m 424.40234,123.66016 h -65.54687 c -13.09375,0 -23.7461,10.65234 -23.7461,23.74609 v 9.07422 c -7.6914,2.4414 -13.77343,8.52734 -16.20703,16.22265 l -117.14453,0.44141 c -2.4414,-7.67187 -8.51562,-13.73828 -16.1914,-16.17578 v -9.07031 c 0,-13.09375 -10.65235,-23.7461 -23.7461,-23.7461 H 96.277344 c -13.09375,0 -23.746094,10.65235 -23.746094,23.7461 v 65.54297 c 0,13.09375 10.652344,23.74218 23.746094,23.74218 h 9.070316 c 2.4375,7.6875 8.51562,13.76563 16.20312,16.20313 v 30.64453 c 0,15.8125 12.86328,28.67578 28.67578,28.67578 H 220.875 c 2.4375,7.6836 8.51562,13.76172 16.19922,16.19922 v 9.58984 c 0,12.8086 10.42187,23.23047 23.23047,23.23047 h 10.16015 c 2.15625,7.51563 7.77344,13.57813 15.00782,16.35547 -2.15625,4.29688 -6.60157,7.25 -11.72266,7.25 h -80.10938 c -1.9414,-8.64453 -8.39843,-15.59766 -16.75,-18.25 v -9.07422 c 0,-13.09375 -10.65234,-23.74609 -23.74609,-23.74609 H 87.597656 c -13.089844,0 -23.742187,10.65234 -23.742187,23.74609 v 65.54688 c 0,13.09375 10.652343,23.74218 23.742187,23.74218 h 65.546874 c 13.09375,0 23.74609,-10.64843 23.74609,-23.74218 v -9.07422 c 6.98438,-2.21875 12.64454,-7.44141 15.44532,-14.14844 H 273.75 c 13.23437,0 24.36328,-9.19531 27.33203,-21.53125 8.26563,-2.32422 14.80078,-8.82812 17.17188,-17.07422 h 8.625 c 12.8125,0 23.23046,-10.42187 23.23046,-23.23047 v -19.73047 c 0,-4.14453 -3.35546,-7.5 -7.5,-7.5 -4.14062,0 -7.5,3.35547 -7.5,7.5 v 19.73047 c 0,4.53907 -3.6914,8.23047 -8.23046,8.23047 h -9.03516 c -7.79688,-22.375 -39.27344,-22.19922 -46.97266,0 h -10.5664 c -4.53907,0 -8.23047,-3.6914 -8.23047,-8.23047 v -9.58984 c 1.60156,-0.50781 3.11328,-1.16016 4.58984,-1.98438 0.10547,-0.10546 12.76563,-6.5 12.76563,-21.71484 0,-10.77734 -6.98438,-20.39062 -17.35547,-23.69922 v -9.58593 c 0,-4.53907 3.6914,-8.23047 8.23047,-8.23047 h 66.57422 c 4.53906,0 8.23046,3.6914 8.23046,8.23046 v 19.73047 c 0,4.14063 3.35938,7.5 7.5,7.5 4.14454,0 7.5,-3.35937 7.5,-7.5 v -19.73047 c 0,-12.80859 -10.42187,-23.23046 -23.23046,-23.23046 h -66.57422 c -12.8086,0 -23.23047,10.42187 -23.23047,23.23046 v 9.58594 c -7.6836,2.4375 -13.76172,8.51563 -16.19922,16.19922 h -70.64453 c -7.54297,0 -13.67969,-6.13672 -13.67969,-13.67578 v -30.64453 c 7.68359,-2.4375 13.76172,-8.51563 16.19922,-16.20313 h 9.07422 c 13.08984,0 23.74219,-10.64843 23.74219,-23.74218 v -9.07422 c 7.69531,-2.44141 13.77734,-8.52735 16.20703,-16.22266 l 117.14453,-0.44141 c 2.4414,7.67188 8.51562,13.74219 16.1914,16.17579 v 9.07421 c 0,13.09375 10.65235,23.7461 23.7461,23.7461 h 65.54687 c 13.08985,0 23.74219,-10.65235 23.74219,-23.7461 v -65.54687 c 0,-13.09375 -10.65234,-23.74609 -23.74219,-23.74609 z M 169.39063,400.63672 c -5.4375,0 -9.85547,-4.42188 -9.85547,-9.85547 0,-5.43359 4.42187,-9.85547 9.85547,-9.85547 5.43359,0 9.85546,4.42188 9.85546,9.85547 0,5.43359 -4.42187,9.85547 -9.85546,9.85547 z m -7.5,22.91797 c 0,4.82031 -3.92188,8.74218 -8.7461,8.74218 H 87.597656 c -4.820312,0 -8.742187,-3.92187 -8.742187,-8.74218 v -65.54688 c 0,-4.82422 3.921875,-8.74609 8.742187,-8.74609 h 65.546874 c 4.82422,0 8.7461,3.92187 8.7461,8.74609 v 9.07422 c -23.25782,7.41016 -22.98829,40.07031 0,47.39844 z m 142.32031,-68.64063 c -0.0234,5.41406 -4.4336,9.8086 -9.85547,9.8086 -5.41797,0 -9.82813,-4.39454 -9.85156,-9.8086 1.23437,-13.53515 18.52343,-12.96484 19.70703,0 z m -58.14063,-59.44922 c 4.72657,0.72657 8.35938,4.82032 8.35938,9.74219 0,5.44531 -4.42969,9.85547 -9.85547,9.85547 -5.4375,0 -9.85547,-4.42188 -9.85547,-9.85547 0,-6.01172 5.37109,-10.65625 11.35156,-9.74219 z m -68.0039,-104.9414 c -5.4336,0 -9.85547,-4.42188 -9.85547,-9.85547 0,-5.4336 4.42187,-9.85547 9.85547,-9.85547 5.43359,0 9.85547,4.42187 9.85547,9.85547 0,5.43359 -4.41797,9.85547 -9.85547,9.85547 z m -49.01563,49.01953 c -5.97656,0 -10.66406,-5.33203 -9.74219,-11.35547 0.72266,-4.72656 4.81641,-8.35547 9.74219,-8.35547 5.42969,0 9.85547,4.41406 9.85547,9.85156 0,5.4375 -4.42187,9.85938 -9.85547,9.85938 z m 41.51563,-26.10156 c 0,4.82031 -3.92188,8.74218 -8.7461,8.74218 H 152.75 c -3.89844,-12.17578 -16.28516,-19.38281 -28.68359,-16.85156 -0.10547,0.0547 -14.05078,2.26953 -18.71485,16.85156 h -9.074216 c -4.824219,0 -8.746094,-3.92187 -8.746094,-8.74218 v -65.54688 c 0,-4.82031 3.921875,-8.74609 8.746094,-8.74609 h 65.546876 c 4.82031,0 8.74219,3.92578 8.74219,8.74609 v 9.07422 c -10.51953,3.35156 -17.89063,13.39453 -17.32422,24.95312 0.043,0.10157 0.14844,16.96875 17.32422,22.44532 z m 172.04297,-43.11719 c 5.42187,0 9.85546,4.41015 9.85546,9.85547 0,5.45312 -4.4414,9.85547 -9.85546,9.85547 -5.4336,0 -9.85547,-4.42188 -9.85547,-9.85547 0,-5.4336 4.42187,-9.85547 9.85547,-9.85547 z m 90.53515,42.6289 c 0,4.82032 -3.92187,8.7461 -8.74219,8.7461 h -65.54687 c -4.82422,0 -8.7461,-3.92578 -8.7461,-8.7461 v -9.07421 c 10.71875,-3.41407 17.90235,-13.60157 17.32422,-24.97266 v -0.004 c -0.51953,-10.3125 -7.4414,-19.27343 -17.32422,-22.42187 v -9.07422 c 0,-4.82031 3.92188,-8.74219 8.7461,-8.74219 h 65.54687 c 4.82032,0 8.74219,3.92188 8.74219,8.74219 z m 0,0"
         id="path1406"
         style="fill:#ffffff;fill-opacity:1" />
    </g>
  </g>
</svg>
