<?xml version="1.0" encoding="UTF-8" standalone="no"?>
<svg
   xmlns:dc="http://purl.org/dc/elements/1.1/"
   xmlns:cc="http://creativecommons.org/ns#"
   xmlns:rdf="http://www.w3.org/1999/02/22-rdf-syntax-ns#"
   xmlns:svg="http://www.w3.org/2000/svg"
   xmlns="http://www.w3.org/2000/svg"
   xmlns:sodipodi="http://sodipodi.sourceforge.net/DTD/sodipodi-0.dtd"
   xmlns:inkscape="http://www.inkscape.org/namespaces/inkscape"
   width="46.200001"
   height="33.5"
   viewBox="0 0 12.22375 8.8635418"
   version="1.1"
   id="svg970"
   inkscape:version="1.0.2 (e86c870879, 2021-01-15, custom)"
   sodipodi:docname="interactive_logo.svg">
  <defs
     id="defs964" />
  <sodipodi:namedview
     id="base"
     pagecolor="#ffffff"
     bordercolor="#666666"
     borderopacity="1.0"
     inkscape:pageopacity="0.0"
     inkscape:pageshadow="2"
     inkscape:zoom="5.6"
     inkscape:cx="51.554048"
     inkscape:cy="20.594776"
     inkscape:document-units="px"
     inkscape:current-layer="layer1"
     inkscape:document-rotation="0"
     showgrid="false"
     units="px"
     inkscape:window-width="1267"
     inkscape:window-height="728"
     inkscape:window-x="83"
     inkscape:window-y="0"
     inkscape:window-maximized="0" />
  <metadata
     id="metadata967">
    <rdf:RDF>
      <cc:Work
         rdf:about="">
        <dc:format>image/svg+xml</dc:format>
        <dc:type
           rdf:resource="http://purl.org/dc/dcmitype/StillImage" />
        <dc:title></dc:title>
      </cc:Work>
    </rdf:RDF>
  </metadata>
  <g
     inkscape:label="Layer 1"
     inkscape:groupmode="layer"
     id="layer1">
    <g
       id="g1524"
       transform="matrix(0.00964397,-0.01956855,0.01956855,0.00964397,-1.224316,5.9351887)"
       style="fill:#ffffff;fill-opacity:1">
      <path
         d="m 91.125,322.44141 c 14.82422,-14.82422 14.82422,-38.94922 0,-53.77344 -7.183594,-7.17969 -16.730469,-11.13672 -26.886719,-11.13672 -5.871093,0 -11.535156,1.32812 -16.65625,3.83203 -18.058593,-25.83594 -27.570312,-56.07031 -27.570312,-87.87109 0,-81.386721 63.578125,-148.808596 144.738281,-153.496096 5.51953,-0.320313 9.73047,-5.050782 9.41406,-10.566406 -0.32031,-5.519532 -5.05078,-9.71875 -10.5664,-9.414063 C 71.859375,5.316406 0,81.515625 0,173.49219 c 0,36.69531 11.214844,71.55078 32.476562,101.15625 -9.714843,14.75 -8.089843,34.82812 4.875,47.79297 7.183594,7.17968 16.730469,11.13671 26.886719,11.13671 10.15625,0 19.703125,-3.95703 26.886719,-11.13671 z M 51.5,282.82031 c 3.511719,-3.51172 8.125,-5.26953 12.738281,-5.26953 4.609375,0 9.222657,1.75781 12.734375,5.26953 7.023438,7.01953 7.023438,18.44922 0,25.46875 -7.023437,7.02344 -18.449218,7.02344 -25.472656,0 -7.019531,-7.01953 -7.019531,-18.44531 0,-25.46875 z m 0,0"
         id="path1518"
         style="fill:#ffffff;fill-opacity:1" />
      <path
         d="m 328.04297,346.66797 c -6.32422,0 -12.26953,1.64844 -17.42969,4.53906 -4.57422,-14.50391 -18.15234,-25.05078 -34.14844,-25.05078 -10.12109,0 -19.27343,4.22266 -25.78906,10.99609 -1.80859,-1.875 -3.82031,-3.55078 -5.99609,-5 23.0625,-10.32422 43.8164,-25.66015 60.60937,-45.08593 27.24219,-31.52344 42.2461,-71.85938 42.2461,-113.57422 0,-36.67578 -11.21485,-71.55078 -32.47266,-101.160159 9.71484,-14.75 8.08984,-34.824219 -4.87891,-47.792969 -14.82422,-14.824218 -38.94531,-14.824218 -53.77343,0 -14.82422,14.824219 -14.82422,38.949219 0,53.773438 7.41406,7.414062 17.14843,11.121094 26.88671,11.121094 5.70704,0 11.40625,-1.285156 16.64454,-3.832032 18.0664,25.843748 27.58203,56.101558 27.58203,87.890628 0,72.38281 -49.13672,133.5664 -118.42188,149.68359 v -53.85937 c 39.67969,-14.64844 66.78907,-53.00391 66.78907,-95.82422 0,-56.3086 -45.8125,-102.121096 -102.125,-102.121096 -56.3086,0 -102.121099,45.808596 -102.121099,102.121096 0,22.22265 7.019531,43.35547 20.292969,61.10547 11.57813,15.48046 27.59766,27.5039 45.57031,34.36328 V 416.14453 L 124.9375,395.52344 C 114.375,378.18359 92.324219,372.55859 74.742188,382.70703 58.019531,392.36328 51.496094,413.55078 59.9375,431.02734 l 37.324219,75.40235 C 99.007812,509.95703 102.55469,512 106.23828,512 c 1.49219,0 3.00391,-0.33203 4.42969,-1.03906 4.95312,-2.45313 6.98047,-8.45703 4.53125,-13.40625 L 77.914062,422.23828 c -3.863281,-8.00391 -0.863281,-17.75391 6.835938,-22.19922 7.957031,-4.59375 18.32031,-1.94922 23.10156,5.89844 l 31.11719,51.05859 c 2.33594,3.82813 6.93359,5.63672 11.25,4.42578 4.31641,-1.21093 7.30078,-5.14843 7.30078,-9.63671 V 222.20703 c 0,-8.70312 7.08203,-15.78125 15.78516,-15.78125 8.70312,0 15.78515,7.07813 15.78515,15.78125 v 39.57813 c -0.004,0.0703 0,0.14062 0,0.21484 v 150.24219 c 0,5.52734 4.47657,10.0039 10.00391,10.0039 5.52734,0 10.00781,-4.47656 10.00781,-10.0039 v -50.28907 c 0,-8.70312 7.07813,-15.78515 15.78125,-15.78515 8.70313,0 15.78516,7.08203 15.78516,15.78515 v 53.92969 c 0,5.52735 4.48047,10.00781 10.00391,10.00781 5.52734,0 10.00781,-4.48046 10.00781,-10.00781 v -53.92969 c 0,-8.70312 7.08203,-15.78515 15.78515,-15.78515 8.70313,0 15.78125,7.08203 15.78125,15.78515 v 54.60547 c 0,5.52735 4.48047,10.00782 10.00782,10.00782 5.52734,0 10.0039,-4.48047 10.0039,-10.00782 v -34.09375 c 0,-8.70312 7.08203,-15.78515 15.78516,-15.78515 8.70312,0 15.78516,7.08203 15.78516,15.78515 v 119.52344 c 0,5.52734 4.47656,10.00781 10.0039,10.00781 5.52735,0 10.00781,-4.48047 10.00781,-10.00781 V 382.46484 c 0,-19.73828 -16.05859,-35.79687 -35.79687,-35.79687 z M 270.5625,64.164062 c -7.02344,-7.023437 -7.02344,-18.449218 0,-25.472656 3.51172,-3.511718 8.12109,-5.265625 12.73437,-5.265625 4.61329,0 9.22657,1.753907 12.73829,5.265625 7.01953,7.023438 7.01953,18.449219 0,25.472656 -7.02344,7.019532 -18.45313,7.019532 -25.47266,0 z M 91.65625,173.49219 c 0,-45.27735 36.83594,-82.113284 82.11328,-82.113284 45.27344,0 82.10938,36.835934 82.10938,82.113284 0,31.88281 -18.6836,60.6914 -46.77735,74.13281 v -25.41797 c 0,-5.61719 -1.30469,-10.9375 -3.625,-15.67578 8.875,-8.55469 14.1211,-20.48047 14.1211,-33.03906 0,-25.27344 -20.5586,-45.83203 -45.82813,-45.83203 -25.27344,0 -45.83203,20.55859 -45.83203,45.83203 0,12.1914 4.96484,23.90625 13.5,32.44531 -2.50391,4.88281 -3.92969,10.41406 -3.92969,16.26953 v 24.99609 C 109.64453,233.58594 91.65625,205.34766 91.65625,173.49219 Z m 63.49219,17.88281 c -4.61328,-4.77344 -7.19922,-11.09766 -7.19922,-17.88281 0,-14.23828 11.58203,-25.82032 25.8164,-25.82032 14.23829,0 25.82032,11.58204 25.82032,25.82032 0,6.88281 -2.79688,13.4375 -7.55469,18.22656 -5.45313,-3.36328 -11.86719,-5.30469 -18.72656,-5.30469 -6.625,0 -12.82813,1.8125 -18.15625,4.96094 z m 0,0"
         id="path1520"
         style="fill:#ffffff;fill-opacity:1" />
      <path
         d="m 209.19922,23.578125 c 2.63281,0 5.21484,-1.070313 7.07422,-2.933594 1.86328,-1.859375 2.93359,-4.441406 2.93359,-7.074219 0,-2.628906 -1.07031,-5.210937 -2.93359,-7.074218 -1.85938,-1.859375 -4.44141,-2.929688 -7.07422,-2.929688 -2.62891,0 -5.21094,1.070313 -7.07031,2.929688 -1.86329,1.863281 -2.9336,4.445312 -2.9336,7.074218 0,2.632813 1.07031,5.214844 2.9336,7.074219 1.85937,1.863281 4.4414,2.933594 7.07031,2.933594 z m 0,0"
         id="path1522"
         style="fill:#ffffff;fill-opacity:1" />
    </g>
  </g>
</svg>
