<?xml version="1.0" encoding="UTF-8" standalone="no"?>
<svg
   xmlns:dc="http://purl.org/dc/elements/1.1/"
   xmlns:cc="http://creativecommons.org/ns#"
   xmlns:rdf="http://www.w3.org/1999/02/22-rdf-syntax-ns#"
   xmlns:svg="http://www.w3.org/2000/svg"
   xmlns="http://www.w3.org/2000/svg"
   xmlns:sodipodi="http://sodipodi.sourceforge.net/DTD/sodipodi-0.dtd"
   xmlns:inkscape="http://www.inkscape.org/namespaces/inkscape"
   width="40"
   height="40"
   viewBox="0 0 10.583333 10.583334"
   version="1.1"
   id="svg2047"
   inkscape:version="1.0.2 (e86c870879, 2021-01-15, custom)"
   sodipodi:docname="intergrate_logo_40px.svg">
  <defs
     id="defs2041" />
  <sodipodi:namedview
     id="base"
     pagecolor="#ffffff"
     bordercolor="#666666"
     borderopacity="1.0"
     inkscape:pageopacity="0.0"
     inkscape:pageshadow="2"
     inkscape:zoom="5.6"
     inkscape:cx="28.899956"
     inkscape:cy="34.398127"
     inkscape:document-units="px"
     inkscape:current-layer="layer1"
     inkscape:document-rotation="0"
     showgrid="false"
     units="px"
     inkscape:window-width="1267"
     inkscape:window-height="728"
     inkscape:window-x="78"
     inkscape:window-y="0"
     inkscape:window-maximized="0" />
  <metadata
     id="metadata2044">
    <rdf:RDF>
      <cc:Work
         rdf:about="">
        <dc:format>image/svg+xml</dc:format>
        <dc:type
           rdf:resource="http://purl.org/dc/dcmitype/StillImage" />
        <dc:title></dc:title>
      </cc:Work>
    </rdf:RDF>
  </metadata>
  <g
     inkscape:label="Layer 1"
     inkscape:groupmode="layer"
     id="layer1">
    <g
       id="g1825"
       transform="matrix(0.02067057,0,0,0.02067057,-0.04724157,3.323792e-5)"
       style="fill:#34495e;fill-opacity:1">
      <path
         d="M 30,256 C 30,131.383 131.383,30 256,30 c 46.867,0 91.563,14.211 129.196,40.587 h -29.074 c -8.284,0 -15,6.716 -15,15 0,8.284 6.716,15 15,15 h 70.292 c 8.284,0 15,-6.716 15,-15 V 15.295 c 0,-8.284 -6.716,-15 -15,-15 -8.284,0 -15,6.716 -15,15 V 52.634 C 366.987,18.499 312.91,0 256,0 187.62,0 123.333,26.629 74.98,74.98 26.629,123.333 0,187.62 0,256 c 0,44.921 11.871,89.182 34.33,127.998 2.78,4.806 7.818,7.49 12.997,7.49 2.55,0 5.134,-0.651 7.499,-2.019 7.17,-4.149 9.619,-13.325 5.471,-20.496 C 40.477,334.718 30,295.652 30,256 Z"
         id="path1817"
         style="fill:#34495e;fill-opacity:1" />
      <path
         d="m 477.67,128.002 c -4.15,-7.171 -13.328,-9.619 -20.496,-5.47 -7.17,4.149 -9.619,13.325 -5.471,20.496 C 471.523,177.281 482,216.346 482,256 482,380.617 380.617,482 256,482 209.137,482 164.449,467.785 126.82,441.413 h 29.058 c 8.284,0 15,-6.716 15,-15 0,-8.284 -6.716,-15 -15,-15 H 85.587 c -8.284,0 -15,6.716 -15,15 v 70.292 c 0,8.284 6.716,15 15,15 8.284,0 15,-6.716 15,-15 V 459.329 C 145.013,493.475 199.083,512 256,512 324.38,512 388.667,485.371 437.02,437.02 485.371,388.667 512,324.38 512,256 512,211.077 500.129,166.816 477.67,128.002 Z"
         id="path1819"
         style="fill:#34495e;fill-opacity:1" />
      <path
         d="m 389.413,225.863 c 1.029,-3.843 0.49,-7.937 -1.499,-11.382 l -30,-51.962 c -1.989,-3.445 -5.266,-5.959 -9.108,-6.989 -3.843,-1.029 -7.937,-0.491 -11.382,1.499 l -17.076,9.859 C 314.275,162.482 307.81,158.736 301,155.679 V 136 c 0,-8.284 -6.716,-15 -15,-15 h -60 c -8.284,0 -15,6.716 -15,15 v 19.678 c -6.81,3.058 -13.274,6.803 -19.348,11.209 l -17.076,-9.859 c -3.445,-1.99 -7.543,-2.529 -11.382,-1.499 -3.843,1.029 -7.119,3.543 -9.108,6.989 l -30,51.962 c -1.989,3.445 -2.528,7.54 -1.499,11.382 1.03,3.843 3.544,7.119 6.989,9.108 l 16.993,9.81 C 146.19,248.505 146,252.253 146,256 c 0,3.747 0.19,7.495 0.569,11.218 l -16.993,9.81 c -3.445,1.989 -5.959,5.266 -6.989,9.108 -1.029,3.843 -0.49,7.937 1.499,11.382 l 30,51.962 c 1.989,3.445 5.266,5.959 9.108,6.989 3.844,1.031 7.938,0.491 11.382,-1.499 l 17.076,-9.859 c 6.073,4.407 12.538,8.152 19.348,11.209 V 376 c 0,8.284 6.716,15 15,15 h 60 c 8.284,0 15,-6.716 15,-15 v -19.678 c 6.81,-3.057 13.274,-6.803 19.348,-11.209 l 17.076,9.859 c 3.444,1.989 7.541,2.528 11.382,1.499 3.843,-1.029 7.119,-3.543 9.108,-6.989 l 30,-51.962 c 1.989,-3.445 2.528,-7.54 1.499,-11.382 -1.03,-3.843 -3.544,-7.119 -6.989,-9.108 l -16.993,-9.81 C 365.81,263.495 366,259.747 366,256 c 0,-3.747 -0.19,-7.495 -0.569,-11.218 l 16.993,-9.81 c 3.445,-1.99 5.959,-5.266 6.989,-9.109 z m -55.032,14.041 c 1.074,5.263 1.619,10.679 1.619,16.096 0,5.417 -0.545,10.833 -1.619,16.096 -1.292,6.324 1.607,12.765 7.196,15.992 l 12.856,7.422 -15,25.98 -12.963,-7.484 c -5.592,-3.229 -12.626,-2.516 -17.458,1.772 -8.18,7.261 -17.517,12.67 -27.751,16.078 -6.128,2.04 -10.262,7.773 -10.262,14.232 V 361 h -30 v -14.912 c 0,-6.458 -4.134,-12.192 -10.262,-14.232 -10.234,-3.408 -19.571,-8.817 -27.751,-16.078 -4.831,-4.289 -11.865,-5.001 -17.458,-1.772 l -12.963,7.484 -15,-25.98 12.856,-7.422 c 5.589,-3.227 8.488,-9.668 7.196,-15.992 C 176.545,266.833 176,261.417 176,256 c 0,-5.417 0.545,-10.833 1.619,-16.096 1.292,-6.324 -1.607,-12.765 -7.196,-15.992 l -12.856,-7.422 15,-25.98 12.963,7.484 c 5.593,3.23 12.626,2.517 17.458,-1.772 8.18,-7.261 17.517,-12.67 27.752,-16.078 6.127,-2.041 10.261,-7.774 10.261,-14.232 V 151 h 30 v 14.912 c 0,6.458 4.134,12.191 10.261,14.232 10.235,3.408 19.572,8.817 27.752,16.078 4.831,4.289 11.865,5.001 17.458,1.772 l 12.963,-7.484 15,25.98 -12.856,7.422 c -5.591,3.227 -8.49,9.668 -7.198,15.992 z"
         id="path1821"
         style="fill:#34495e;fill-opacity:1" />
      <path
         d="m 256,201 c -30.327,0 -55,24.673 -55,55 0,30.327 24.673,55 55,55 30.327,0 55,-24.673 55,-55 0,-30.327 -24.673,-55 -55,-55 z m 0,80 c -13.785,0 -25,-11.215 -25,-25 0,-13.785 11.215,-25 25,-25 13.785,0 25,11.215 25,25 0,13.785 -11.215,25 -25,25 z"
         id="path1823"
         style="fill:#34495e;fill-opacity:1" />
    </g>
  </g>
</svg>
