<?xml version="1.0" encoding="UTF-8" standalone="no"?>
<svg
   xmlns:dc="http://purl.org/dc/elements/1.1/"
   xmlns:cc="http://creativecommons.org/ns#"
   xmlns:rdf="http://www.w3.org/1999/02/22-rdf-syntax-ns#"
   xmlns:svg="http://www.w3.org/2000/svg"
   xmlns="http://www.w3.org/2000/svg"
   xmlns:sodipodi="http://sodipodi.sourceforge.net/DTD/sodipodi-0.dtd"
   xmlns:inkscape="http://www.inkscape.org/namespaces/inkscape"
   width="156"
   height="326"
   viewBox="0 0 41.274999 86.254168"
   version="1.1"
   id="svg2164"
   inkscape:version="1.0.2 (e86c870879, 2021-01-15, custom)"
   sodipodi:docname="phone_outline.svg">
  <defs
     id="defs2158" />
  <sodipodi:namedview
     id="base"
     pagecolor="#ffffff"
     bordercolor="#666666"
     borderopacity="1.0"
     inkscape:pageopacity="0.0"
     inkscape:pageshadow="2"
     inkscape:zoom="1.979899"
     inkscape:cx="94.62214"
     inkscape:cy="77.212715"
     inkscape:document-units="px"
     inkscape:current-layer="layer1"
     inkscape:document-rotation="0"
     showgrid="false"
     units="px"
     inkscape:window-width="1024"
     inkscape:window-height="728"
     inkscape:window-x="0"
     inkscape:window-y="0"
     inkscape:window-maximized="0" />
  <metadata
     id="metadata2161">
    <rdf:RDF>
      <cc:Work
         rdf:about="">
        <dc:format>image/svg+xml</dc:format>
        <dc:type
           rdf:resource="http://purl.org/dc/dcmitype/StillImage" />
        <dc:title></dc:title>
      </cc:Work>
    </rdf:RDF>
  </metadata>
  <g
     inkscape:label="Layer 1"
     inkscape:groupmode="layer"
     id="layer1">
    <g
       id="g2135"
       transform="translate(-604.81431,-866.25078)">
      <rect
         style="fill:#ffffff;fill-opacity:1;stroke:#0d161d;stroke-width:0.20449;stroke-opacity:1"
         id="rect2115"
         width="37.342262"
         height="74.560387"
         x="606.65607"
         y="872.15302"
         ry="2.1579638" />
      <path
         id="path2117"
         style="fill:#34495e;fill-opacity:1;stroke:#34495e;stroke-width:0.272653;stroke-opacity:1"
         d="m 610.38282,866.72454 c -2.82596,0 -5.10104,2.27508 -5.10104,5.10105 v 75.21539 c 0,2.82597 2.27508,5.1009 5.10104,5.1009 h 29.8887 c 2.82599,0 5.10106,-2.27493 5.10106,-5.1009 v -75.21539 c 0,-2.82597 -2.27507,-5.10105 -5.10106,-5.10105 z m -1.61988,5.45301 h 33.02633 c 1.19553,0 2.15799,0.96247 2.15799,2.15798 v 70.24439 c 0,1.19551 -0.96246,2.15799 -2.15799,2.15799 h -33.02633 c -1.19553,0 -2.15786,-0.96248 -2.15786,-2.15799 v -70.24439 c 0,-1.19551 0.96233,-2.15798 2.15786,-2.15798 z" />
      <path
         style="fill:#41b783;fill-opacity:1;stroke:#41b783;stroke-width:0.0721394px;stroke-linecap:butt;stroke-linejoin:miter;stroke-opacity:1"
         d="m 645.51033,883.39637 c 0.0366,-0.003 0.36783,0.098 0.40808,0.38258 v 11.50282 c -0.0366,0.30935 -0.21414,0.33686 -0.38259,0.38258 z"
         id="path2119"
         sodipodi:nodetypes="ccccc" />
      <path
         style="fill:#41b783;fill-opacity:1;stroke:#41b783;stroke-width:0.050305px;stroke-linecap:butt;stroke-linejoin:miter;stroke-opacity:1"
         d="m 645.49852,898.57137 c 0.01,-0.0368 0.30199,-0.0473 0.4285,0.18543 l 0.003,5.27812 c -0.0995,0.17763 -0.26695,0.17843 -0.40469,0.17586 z"
         id="path2121"
         sodipodi:nodetypes="ccccc" />
      <ellipse
         style="fill:#095a9d;fill-opacity:1;stroke:#41b783;stroke-width:0.215362;stroke-opacity:1"
         id="ellipse2123"
         cx="618.21515"
         cy="869.62372"
         rx="0.67420876"
         ry="0.6742087" />
      <ellipse
         style="fill:#41b783;fill-opacity:1;stroke:#41b783;stroke-width:0.215362;stroke-opacity:1"
         id="ellipse2125"
         cx="632.35449"
         cy="869.62372"
         rx="0.67420876"
         ry="0.6742087" />
      <ellipse
         style="fill:#41b783;fill-opacity:1;stroke:#41b783;stroke-width:0.215362;stroke-opacity:1"
         id="ellipse2127"
         cx="635.49255"
         cy="869.62372"
         rx="0.67420876"
         ry="0.6742087" />
      <rect
         style="fill:#41b783;fill-opacity:1;stroke:#41b783;stroke-width:0.187743;stroke-opacity:1"
         id="rect2129"
         width="5.2468576"
         height="0.57582766"
         x="622.64899"
         y="869.33582"
         ry="0.28791383" />
      <ellipse
         style="fill:#41b783;fill-opacity:1;stroke:none;stroke-width:0.17587;stroke-opacity:1"
         id="ellipse2131"
         cx="618.21515"
         cy="869.62372"
         rx="0.55057573"
         ry="0.55057561" />
      <ellipse
         style="fill:#fafafa;fill-opacity:1;stroke:none;stroke-width:0.039406;stroke-opacity:1"
         id="ellipse2133"
         cx="617.96643"
         cy="869.37506"
         rx="0.12336437"
         ry="0.12336435" />
    </g>
  </g>
</svg>
