<?xml version="1.0" encoding="UTF-8" standalone="no"?>
<svg
   xmlns:dc="http://purl.org/dc/elements/1.1/"
   xmlns:cc="http://creativecommons.org/ns#"
   xmlns:rdf="http://www.w3.org/1999/02/22-rdf-syntax-ns#"
   xmlns:svg="http://www.w3.org/2000/svg"
   xmlns="http://www.w3.org/2000/svg"
   xmlns:sodipodi="http://sodipodi.sourceforge.net/DTD/sodipodi-0.dtd"
   xmlns:inkscape="http://www.inkscape.org/namespaces/inkscape"
   width="50"
   height="72.900002"
   viewBox="0 0 13.229166 19.288126"
   version="1.1"
   id="svg1016"
   inkscape:version="1.0.2 (e86c870879, 2021-01-15, custom)"
   sodipodi:docname="popular.svg">
  <defs
     id="defs1010" />
  <sodipodi:namedview
     id="base"
     pagecolor="#ffffff"
     bordercolor="#666666"
     borderopacity="1.0"
     inkscape:pageopacity="0.0"
     inkscape:pageshadow="2"
     inkscape:zoom="3.959798"
     inkscape:cx="61.506519"
     inkscape:cy="29.639031"
     inkscape:document-units="px"
     inkscape:current-layer="layer1"
     inkscape:document-rotation="0"
     showgrid="false"
     units="px"
     inkscape:window-width="1267"
     inkscape:window-height="728"
     inkscape:window-x="83"
     inkscape:window-y="0"
     inkscape:window-maximized="0" />
  <metadata
     id="metadata1013">
    <rdf:RDF>
      <cc:Work
         rdf:about="">
        <dc:format>image/svg+xml</dc:format>
        <dc:type
           rdf:resource="http://purl.org/dc/dcmitype/StillImage" />
        <dc:title></dc:title>
      </cc:Work>
    </rdf:RDF>
  </metadata>
  <g
     inkscape:label="Layer 1"
     inkscape:groupmode="layer"
     id="layer1">
    <g
       id="g2801"
       transform="matrix(0.03765431,0,0,0.03765431,-0.07024838,0.02738229)"
       style="fill:#34495e;fill-opacity:1">
      <path
         d="m 285.40234,132.95703 c -3.48047,-5.76172 -10.3789,-8.5 -16.86328,-6.6914 -6.48828,1.80859 -10.97265,7.71484 -10.97265,14.44921 0,18.3086 -14.89453,33.19922 -33.19922,33.19922 -18.3086,0 -33.19922,-14.89062 -33.19922,-33.19922 V 15 c 0,-6.066406 -3.65625,-11.535156 -9.26172,-13.859375 C 176.30078,-1.179688 169.84766,0.105469 165.55859,4.394531 163.87891,6.078125 123.875,46.308594 83.351562,107.09766 59.457031,142.94141 40.386719,178.49609 26.675781,212.77344 9.308594,256.19531 0.5,297.76953 0.5,336.33203 0.5,433.19531 79.304688,512 176.16406,512 c 96.86328,0 175.66797,-78.80469 175.66797,-175.66797 0,-62 -22.35156,-130.42578 -66.42969,-203.375 z M 176.16406,482 C 95.847656,482 30.5,416.65234 30.5,336.33203 c 0,-79.0625 42.136719,-158.98047 77.48828,-212.10547 19.16016,-28.792966 38.46875,-53.058591 53.17578,-70.316404 v 86.804684 c 0,34.84766 28.35157,63.19922 63.19922,63.19922 21.30469,0 40.18359,-10.59375 51.63672,-26.79297 30.42969,57.30079 45.83203,110.7461 45.83203,159.21094 C 321.83203,416.65234 256.48828,482 176.16406,482 Z m 0,0"
         id="path2787"
         style="fill:#34495e;fill-opacity:1" />
      <path
         d="m 261.25781,253.16797 h -64.26562 c -8.28516,0 -15,6.71484 -15,14.99609 -0.004,8.28516 6.71484,15.00391 14.99609,15.00391 h 28.05859 L 160.96094,347.25 126.125,312.41406 c -5.85547,-5.85547 -15.35547,-5.85547 -21.21094,0 l -34.085935,34.08203 c -5.859375,5.85938 -5.859375,15.35547 -0.0039,21.21485 5.859375,5.85937 15.355469,5.85547 21.214843,0 l 23.480472,-23.47657 34.83203,34.83594 c 2.8125,2.8125 6.62891,4.39453 10.60938,4.39453 3.97656,0 7.79297,-1.58203 10.60547,-4.39453 l 74.6914,-74.6875 v 28.05078 c 0,8.28125 6.71485,15 15,15 8.28516,0 15,-6.71875 15,-15 v -64.26562 c 0,-8.28516 -6.71484,-15 -15,-15 z m 0,0"
         id="path2789"
         style="fill:#34495e;fill-opacity:1" />
    </g>
  </g>
</svg>
